<svg width="40" height="40" viewBox="0 0 40 40" fill="none" xmlns="http://www.w3.org/2000/svg">
<path d="M18.0765 6.36969C18.7882 4.65802 21.2099 4.65802 21.9232 6.36969L24.8282 13.353L32.3682 13.958C34.2149 14.1064 34.9649 16.4114 33.5565 17.6164L27.8115 22.538L29.5665 29.8964C29.9965 31.698 28.0365 33.123 26.4549 32.158L19.9999 28.2147L13.5449 32.158C11.9615 33.1247 10.0015 31.698 10.4315 29.8964L12.1865 22.538L6.44152 17.6164C5.03486 16.4114 5.78319 14.1064 7.63152 13.958L15.1715 13.353L18.0765 6.36969ZM19.9999 8.25469L17.3815 14.5497C17.2342 14.9031 16.9923 15.2091 16.6824 15.434C16.3725 15.659 16.0066 15.7941 15.6249 15.8247L8.82986 16.3697L14.0065 20.8047C14.5999 21.313 14.8582 22.1114 14.6782 22.8714L13.0949 29.5014L18.9132 25.948C19.2402 25.7483 19.6159 25.6427 19.999 25.6427C20.3822 25.6427 20.7579 25.7483 21.0849 25.948L26.9015 29.5014L25.3215 22.8714C25.2325 22.4984 25.248 22.1082 25.3666 21.7435C25.4851 21.3789 25.7019 21.054 25.9932 20.8047L31.1699 16.3714L24.3749 15.8247C23.9929 15.7944 23.6266 15.6594 23.3164 15.4345C23.0062 15.2095 22.764 14.9034 22.6165 14.5497L19.9999 8.25469Z" fill="black"/>
</svg>
