<svg width="30" height="28" viewBox="0 0 30 28" fill="none" xmlns="http://www.w3.org/2000/svg">
<path d="M13.0765 1.36969C13.7882 -0.34198 16.2099 -0.34198 16.9232 1.36969L19.8282 8.353L27.3682 8.958C29.2149 9.1064 29.9649 11.4114 28.5565 12.6164L22.8115 17.538L24.5665 24.8964C24.9965 26.698 23.0365 28.123 21.4549 27.158L14.9999 23.2147L8.5449 27.158C6.9615 28.1247 5.0015 26.698 5.4315 24.8964L7.1865 17.538L1.44152 12.6164C0.0348604 11.4114 0.78319 9.1064 2.63152 8.958L10.1715 8.353L13.0765 1.36969ZM14.9999 3.25469L12.3815 9.5497C12.2342 9.9031 11.9923 10.2091 11.6824 10.434C11.3725 10.659 11.0066 10.7941 10.6249 10.8247L3.82986 11.3697L9.0065 15.8047C9.5999 16.313 9.8582 17.1114 9.6782 17.8714L8.0949 24.5014L13.9132 20.948C14.2402 20.7483 14.6159 20.6427 14.999 20.6427C15.3822 20.6427 15.7579 20.7483 16.0849 20.948L21.9015 24.5014L20.3215 17.8714C20.2325 17.4984 20.248 17.1082 20.3666 16.7435C20.4851 16.3789 20.7019 16.054 20.9932 15.8047L26.1699 11.3714L19.3749 10.8247C18.9929 10.7944 18.6266 10.6594 18.3164 10.4345C18.0062 10.2095 17.764 9.9034 17.6165 9.5497L14.9999 3.25469Z" fill="#FF5555"/>
</svg>
